<?xml version="1.0" encoding="utf-8"?>
<!-- Generator: Adobe Illustrator 27.5.0, SVG Export Plug-In . SVG Version: 6.00 Build 0)  -->
<svg version="1.1" id="Capa_1" xmlns="http://www.w3.org/2000/svg" xmlns:xlink="http://www.w3.org/1999/xlink" x="0px" y="0px"
	 viewBox="0 0 440.545 425.197" style="enable-background:new 0 0 440.545 425.197;" xml:space="preserve">
<rect x="0" y="0" style="fill:#FFFFFF;" width="440.545" height="425.197"/>
<g>
	<g>
		<g>
			<path style="fill:#FEC450;" d="M114.691,208.535c0-10.784-6.084-20.094-14.889-24.446c0.006-0.189,0.016-0.377,0.016-0.567
				c0-14.952-11.691-27.072-26.113-27.072c-14.424,0-26.115,12.12-26.115,27.072c0,0.427,0.012,0.853,0.031,1.276
				c-8.078,4.604-13.555,13.507-13.555,23.738c0,5.547,1.611,10.702,4.369,14.995c-2.988,4.403-4.75,9.767-4.75,15.561
				c0,14.951,11.693,27.072,26.115,27.072c5.318,0,10.264-1.653,14.389-4.482c4.127,2.83,9.068,4.482,14.389,4.482
				c14.422,0,26.113-12.121,26.113-27.072c0-5.67-1.684-10.928-4.557-15.277C113.008,219.463,114.691,214.204,114.691,208.535z"/>
		</g>
		<path style="fill:#1B62A9;" d="M72.779,253.378c0.678,24.853,1.451,58.698,1.432,82.869h2.375
			c0.021-26.467-0.906-64.514-1.621-89.682c3.154-1.31,13.359-8.138,15.568-41.956c0.041-0.654-0.455-1.22-1.109-1.261
			c-0.67-0.058-1.219,0.453-1.262,1.107C86.221,234.206,78.078,242,74.891,243.929c-0.398-13.85-0.709-23.206-0.719-23.472
			c-0.021-0.656-0.535-1.177-1.227-1.147c-0.654,0.023-1.168,0.572-1.146,1.228c0.01,0.306,0.426,12.757,0.908,30.251
			c-4.283-1.874-16.318-8.755-15.184-26.709c0.041-0.656-0.457-1.219-1.111-1.26c-0.65-0.039-1.219,0.456-1.26,1.11
			C53.846,244.649,69.291,251.992,72.779,253.378z"/>
	</g>
	<g>
		
			<line style="fill:none;stroke:#1B62A9;stroke-width:2.8025;stroke-linecap:round;stroke-linejoin:round;stroke-miterlimit:10;" x1="43.713" y1="337.88" x2="413.5" y2="337.88"/>
		
			<line style="fill:none;stroke:#1B62A9;stroke-width:2.6747;stroke-linecap:round;stroke-linejoin:round;stroke-miterlimit:10;" x1="91.846" y1="353.831" x2="354.103" y2="353.831"/>
		
			<line style="fill:none;stroke:#1B62A9;stroke-width:2.6747;stroke-linecap:round;stroke-linejoin:round;stroke-miterlimit:10;" x1="62.799" y1="370.53" x2="233.975" y2="370.53"/>
		
			<line style="fill:none;stroke:#1B62A9;stroke-width:2.6747;stroke-linecap:round;stroke-linejoin:round;stroke-miterlimit:10;" x1="176.934" y1="383.904" x2="348.111" y2="383.904"/>
	</g>
	<path style="fill:#1FC4F4;" d="M363.932,122.545c-0.016-6.213-4.219-11.436-9.932-13.003c0.002-0.16,0.01-0.322,0.01-0.485
		c0-7.468-6.055-13.52-13.521-13.52c-4.598,0-8.652,2.293-11.094,5.795c-2.352-2.32-5.582-3.755-9.147-3.755
		c-6.861,0-12.476,5.304-12.984,12.032c-0.176-0.006-0.357-0.013-0.537-0.013c-7.273,0-13.189,5.75-13.492,12.948H363.932z"/>
	<path style="fill:#1FC4F4;" d="M134.52,109.041c-0.016-6.213-4.219-11.435-9.934-13.004c0.004-0.159,0.012-0.322,0.012-0.485
		c0-7.467-6.057-13.52-13.521-13.52c-4.596,0-8.652,2.293-11.094,5.796c-2.355-2.32-5.584-3.755-9.146-3.755
		c-6.861,0-12.475,5.304-12.986,12.033c-0.176-0.007-0.354-0.014-0.537-0.014c-7.271,0-13.188,5.75-13.49,12.948H134.52z"/>
	<path style="fill:#1FC4F4;" d="M243.785,92.813c-0.012-4.959-3.367-9.128-7.93-10.379c0.006-0.128,0.012-0.258,0.012-0.387
		c0-5.961-4.834-10.792-10.795-10.792c-3.668,0-6.906,1.831-8.855,4.626c-1.877-1.852-4.455-2.997-7.299-2.997
		c-5.476,0-9.959,4.233-10.367,9.604c-0.139-0.004-0.281-0.01-0.426-0.01c-5.809,0-10.529,4.589-10.77,10.335H243.785z"/>
	<g>
		<g>
			<rect x="190.84" y="171.11" style="fill:#FAA74A;" width="9.514" height="24.601"/>
			<rect x="239.428" y="171.11" style="fill:#FAA74A;" width="9.514" height="24.601"/>
			<polygon style="fill:#FEC450;" points="248.941,171.11 190.84,171.11 201.283,161.419 240.051,161.419 			"/>
		</g>
		<polygon style="fill:#F0516F;" points="292.728,321.315 146.363,321.315 159.422,191.788 279.67,191.788 		"/>
		<polygon style="fill:#D9465F;" points="299.07,339.83 138.867,339.83 146.363,321.315 292.728,321.315 		"/>
	</g>
	<g>
		<g>
			<rect x="238.178" y="268.831" style="fill:#1B62A9;" width="102.092" height="70.998"/>
			<rect x="242.879" y="274.903" style="fill:#FFFFFF;" width="92.688" height="58.854"/>
			<path style="fill:#FFFFFF;" d="M291.994,336.542c0,0.974-0.789,1.763-1.764,1.763c-0.975,0-1.762-0.789-1.762-1.763
				c0-0.973,0.787-1.763,1.762-1.763C291.205,334.778,291.994,335.568,291.994,336.542z"/>
			<path style="fill:#FFFFFF;" d="M295.904,271.997c0,0.493-0.52,0.893-1.164,0.893h-9.022c-0.641,0-1.164-0.401-1.164-0.893v-0.186
				c0-0.495,0.523-0.893,1.164-0.893h9.022c0.645,0,1.164,0.398,1.164,0.893V271.997z"/>
		</g>
		<g>
			<g>
				<g>
					<path style="fill:#D83861;" d="M235.758,288.275v1.87c0,1.833,1.486,3.319,3.32,3.319c1.832,0,3.318-1.486,3.318-3.319v-1.87
						H235.758z"/>
					<path style="fill:#EA9847;" d="M242.396,288.275v1.87c0,1.833,1.486,3.319,3.32,3.319c1.832,0,3.32-1.486,3.32-3.319v-1.87
						H242.396z"/>
					<path style="fill:#D83861;" d="M249.037,288.275v1.87c0,1.833,1.484,3.319,3.316,3.319c1.834,0,3.32-1.486,3.32-3.319v-1.87
						H249.037z"/>
					<path style="fill:#EA9847;" d="M255.674,288.275v1.87c0,1.833,1.484,3.319,3.316,3.319c1.836,0,3.32-1.486,3.32-3.319v-1.87
						H255.674z"/>
					<path style="fill:#D83861;" d="M262.31,288.275v1.87c0,1.833,1.486,3.319,3.32,3.319c1.832,0,3.318-1.486,3.318-3.319v-1.87
						H262.31z"/>
					<path style="fill:#EA9847;" d="M268.949,288.275v1.87c0,1.833,1.484,3.319,3.32,3.319c1.832,0,3.316-1.486,3.316-3.319v-1.87
						H268.949z"/>
					<path style="fill:#D83861;" d="M275.586,288.275v1.87c0,1.833,1.486,3.319,3.32,3.319c1.832,0,3.318-1.486,3.318-3.319v-1.87
						H275.586z"/>
					<path style="fill:#EA9847;" d="M282.225,288.275v1.87c0,1.833,1.486,3.319,3.32,3.319c1.832,0,3.318-1.486,3.318-3.319v-1.87
						H282.225z"/>
				</g>
				<g>
					<path style="fill:#D83861;" d="M288.863,288.275v1.87c0,1.833,1.484,3.319,3.318,3.319c1.834,0,3.32-1.486,3.32-3.319v-1.87
						H288.863z"/>
					<path style="fill:#EA9847;" d="M295.502,288.275v1.87c0,1.833,1.484,3.319,3.318,3.319c1.834,0,3.318-1.486,3.318-3.319v-1.87
						H295.502z"/>
					<path style="fill:#D83861;" d="M302.139,288.275v1.87c0,1.833,1.486,3.319,3.32,3.319c1.832,0,3.32-1.486,3.32-3.319v-1.87
						H302.139z"/>
					<path style="fill:#EA9847;" d="M308.779,288.275v1.87c0,1.833,1.482,3.319,3.316,3.319c1.832,0,3.318-1.486,3.318-3.319v-1.87
						H308.779z"/>
					<path style="fill:#D83861;" d="M315.414,288.275v1.87c0,1.833,1.488,3.319,3.32,3.319c1.832,0,3.318-1.486,3.318-3.319v-1.87
						H315.414z"/>
					<path style="fill:#EA9847;" d="M322.053,288.275v1.87c0,1.833,1.484,3.319,3.32,3.319c1.832,0,3.318-1.486,3.318-3.319v-1.87
						H322.053z"/>
					<path style="fill:#D83861;" d="M328.691,288.275v1.87c0,1.833,1.484,3.319,3.318,3.319c1.834,0,3.318-1.486,3.318-3.319v-1.87
						H328.691z"/>
					<path style="fill:#EA9847;" d="M335.328,288.275v1.87c0,1.833,1.488,3.319,3.32,3.319s3.318-1.486,3.318-3.319v-1.87H335.328z"
						/>
				</g>
			</g>
			<g>
				<g>
					<g>
						<path style="fill:#F0516F;" d="M241.895,274.813c-2.063,4.48-4.078,8.982-6.137,13.462h6.639
							c1.996-4.495,4.006-8.983,6.033-13.462H241.895z"/>
						<path style="fill:#FEC450;" d="M248.43,274.813c-2.027,4.479-4.037,8.967-6.033,13.462h6.641
							c1.854-4.503,3.762-8.982,5.67-13.462H248.43z"/>
						<path style="fill:#F0516F;" d="M254.707,274.813c-1.908,4.48-3.816,8.959-5.67,13.462h6.637
							c1.656-4.5,3.361-8.981,5.066-13.462H254.707z"/>
						<path style="fill:#FEC450;" d="M260.74,274.813c-1.705,4.48-3.41,8.961-5.066,13.462h6.637
							c1.395-4.5,2.848-8.979,4.289-13.462H260.74z"/>
						<path style="fill:#F0516F;" d="M266.6,274.813c-1.441,4.483-2.895,8.962-4.289,13.462h6.639
							c1.086-4.497,2.232-8.977,3.359-13.462H266.6z"/>
						<path style="fill:#FEC450;" d="M272.309,274.813c-1.127,4.485-2.273,8.964-3.359,13.462h6.637
							c0.744-4.495,1.547-8.976,2.324-13.462H272.309z"/>
						<path style="fill:#F0516F;" d="M277.91,274.813c-0.777,4.486-1.58,8.967-2.324,13.462h6.639
							c0.377-4.492,0.809-8.975,1.209-13.462H277.91z"/>
						<path style="fill:#FEC450;" d="M283.434,274.813c-0.4,4.487-0.832,8.97-1.209,13.462h6.639
							c-0.002-4.49,0.041-8.976,0.053-13.462H283.434z"/>
					</g>
					<g>
						<path style="fill:#F0516F;" d="M288.916,274.813c-0.012,4.486-0.055,8.972-0.053,13.462h6.639
							c-0.383-4.488-0.732-8.976-1.109-13.462H288.916z"/>
						<path style="fill:#FEC450;" d="M294.393,274.813c0.377,4.486,0.727,8.974,1.109,13.462h6.637
							c-0.754-4.488-1.482-8.977-2.236-13.462H294.393z"/>
						<path style="fill:#F0516F;" d="M299.902,274.813c0.754,4.485,1.482,8.974,2.236,13.462h6.641
							c-1.105-4.488-2.195-8.977-3.299-13.462H299.902z"/>
						<path style="fill:#FEC450;" d="M305.48,274.813c1.104,4.485,2.193,8.974,3.299,13.462h6.635
							c-1.422-4.487-2.83-8.976-4.252-13.462H305.48z"/>
						<path style="fill:#F0516F;" d="M311.162,274.813c1.422,4.486,2.83,8.975,4.252,13.462h6.639
							c-1.697-4.485-3.383-8.974-5.068-13.462H311.162z"/>
						<path style="fill:#FEC450;" d="M316.984,274.813c1.685,4.488,3.371,8.977,5.068,13.462h6.639
							c-1.918-4.48-3.811-8.97-5.699-13.462H316.984z"/>
						<path style="fill:#F0516F;" d="M322.992,274.813c1.889,4.492,3.781,8.982,5.699,13.462h6.637
							c-2.07-4.473-4.096-8.965-6.113-13.462H322.992z"/>
						<path style="fill:#FEC450;" d="M335.695,274.813h-6.48c2.018,4.497,4.043,8.989,6.113,13.462h6.639
							C339.822,283.811,337.752,279.315,335.695,274.813z"/>
					</g>
				</g>
			</g>
		</g>
	</g>
	<g>
		<g>
			<g>
				<rect x="103.982" y="283.673" style="fill:#FAA73F;" width="111.654" height="55.869"/>
				<rect x="110.568" y="289.061" style="fill:#FEC450;" width="98.486" height="45.095"/>
			</g>
			<g>
				<path style="fill:#FAA73F;" d="M173.914,311.606c0,7.788-6.316,14.106-14.105,14.106c-7.789,0-14.104-6.318-14.104-14.106
					c0-7.788,6.314-14.102,14.104-14.102C167.598,297.504,173.914,303.818,173.914,311.606z"/>
				<path style="fill:#FAA73F;" d="M194.543,311.606c0,2.97-2.406,5.374-5.371,5.374c-2.967,0-5.371-2.404-5.371-5.374
					c0-2.968,2.404-5.373,5.371-5.373C192.137,306.233,194.543,308.638,194.543,311.606z"/>
				<path style="fill:#FAA73F;" d="M135.818,311.606c0,2.97-2.406,5.374-5.371,5.374c-2.969,0-5.377-2.404-5.377-5.374
					c0-2.968,2.408-5.373,5.377-5.373C133.412,306.233,135.818,308.638,135.818,311.606z"/>
			</g>
		</g>
		<g>
			<rect x="167.309" y="301.703" style="fill:#1B62A9;" width="57.779" height="38.126"/>
			<g>
				<rect x="171.213" y="333.175" style="fill:#1FC4F4;" width="49.863" height="1.702"/>
				<rect x="171.213" y="329.085" style="fill:#FEC450;" width="49.863" height="1.704"/>
			</g>
			<g>
				<rect x="204.729" y="308.478" style="fill:#1FC4F4;" width="14.035" height="9.402"/>
				<g>
					<g>
						<rect x="173.42" y="310.741" style="fill:#FEC450;" width="22.182" height="1.841"/>
						<rect x="173.42" y="314.653" style="fill:#FEC450;" width="22.182" height="1.842"/>
					</g>
				</g>
			</g>
		</g>
	</g>
	<g>
		<path style="fill:#1FC4F4;" d="M244.875,128.889c0,14.745-11.953,26.698-26.699,26.698c-14.744,0-26.695-11.953-26.695-26.698
			c0-14.745,11.951-26.697,26.695-26.697C232.922,102.192,244.875,114.145,244.875,128.889z"/>
		<g>
			<rect x="198.652" y="117.04" style="fill:#1B62A9;" width="39.047" height="25.765"/>
			<g>
				<rect x="201.291" y="138.308" style="fill:#1FC4F4;" width="33.697" height="1.151"/>
				<rect x="201.291" y="135.545" style="fill:#FEC450;" width="33.697" height="1.151"/>
			</g>
			<g>
				<rect x="223.938" y="121.619" style="fill:#1FC4F4;" width="9.486" height="6.353"/>
				<g>
					<g>
						<rect x="202.781" y="123.147" style="fill:#FEC450;" width="14.992" height="1.244"/>
						<rect x="202.781" y="125.792" style="fill:#FEC450;" width="14.992" height="1.244"/>
					</g>
				</g>
			</g>
		</g>
	</g>
	<g>
		
			<ellipse transform="matrix(0.7071 -0.7071 0.7071 0.7071 -24.8608 253.221)" style="fill:#1FC4F4;" cx="293.234" cy="156.62" rx="26.697" ry="26.697"/>
		<g>
			<g>
				<g>
					<path style="fill:#F0516F;" d="M281.688,176.804h21.174c-0.166-19.385-4.637-21.333-4.643-21.336
						c-0.238-1.058-0.467-3.866,1.109-10.115c1.188-2.92,1.031-8.916,1.031-8.916h-1.233c0.233,2.381-0.225,4.653-0.402,5.409
						c-0.69-0.885-1.766-1.375-2.973-1.456c-1.23-0.084-2.902,0.122-3.478,1.466c-0.576-1.344-2.266-1.527-3.453-1.466
						c-1.324,0.067-2.492,0.688-3.162,1.725c0-0.001,0-0.002,0-0.002s-0.754-2.756-0.467-5.674h-1.234c0,0-0.004,5.656,1.191,8.571
						c0.004,0.005,1.996,7.045,1.217,10.525C282.723,158.135,281.859,172.663,281.688,176.804z"/>
				</g>
			</g>
		</g>
	</g>
	<g>
		<path style="fill:#1FC4F4;" d="M130.68,207.378c0,14.745-11.953,26.697-26.697,26.697c-14.746,0-26.699-11.953-26.699-26.697
			c0-14.745,11.953-26.698,26.699-26.698C118.727,180.68,130.68,192.633,130.68,207.378z"/>
		<g>
			<g>
				<path style="fill:#FAA73F;" d="M87.287,213.552v3.388h0.021c0.438,3.392,7.734,6.089,16.672,6.089
					c8.939,0,16.236-2.698,16.674-6.089h0.021v-3.388H87.287z"/>
				<path style="fill:#FEC450;" d="M120.676,213.351c0,3.54-7.475,6.411-16.695,6.411c-9.219,0-16.693-2.871-16.693-6.411
					c0-3.543,7.475-6.412,16.693-6.412C113.201,206.939,120.676,209.809,120.676,213.351z"/>
				<path style="fill:#FAA73F;" d="M114.691,213.351c0,2.272-4.793,4.113-10.711,4.113c-5.916,0-10.711-1.841-10.711-4.113
					c0-2.272,4.795-4.114,10.711-4.114C109.898,209.237,114.691,211.079,114.691,213.351z"/>
			</g>
			<g>
				<path style="fill:#FAA73F;" d="M87.287,208.482v3.388h0.021c0.438,3.39,7.734,6.088,16.672,6.088
					c8.939,0,16.236-2.698,16.674-6.088h0.021v-3.388H87.287z"/>
				<path style="fill:#FEC450;" d="M120.676,208.28c0,3.541-7.475,6.411-16.695,6.411c-9.219,0-16.693-2.87-16.693-6.411
					s7.475-6.412,16.693-6.412C113.201,201.868,120.676,204.739,120.676,208.28z"/>
				<path style="fill:#FAA73F;" d="M114.691,208.28c0,2.272-4.793,4.113-10.711,4.113c-5.916,0-10.709-1.841-10.709-4.113
					c0-2.273,4.793-4.114,10.709-4.114C109.898,204.166,114.691,206.008,114.691,208.28z"/>
			</g>
			<g>
				<path style="fill:#FAA73F;" d="M87.287,203.411v3.388h0.021c0.438,3.39,7.734,6.088,16.672,6.088
					c8.939,0,16.236-2.698,16.674-6.088h0.021v-3.388H87.287z"/>
				<path style="fill:#FEC450;" d="M120.676,203.21c0,3.54-7.475,6.411-16.695,6.411c-9.219,0-16.693-2.871-16.693-6.411
					c0-3.542,7.475-6.412,16.693-6.412C113.201,196.797,120.676,199.667,120.676,203.21z"/>
				<path style="fill:#FAA73F;" d="M114.691,203.21c0,2.272-4.793,4.114-10.711,4.114c-5.916,0-10.709-1.841-10.709-4.114
					c0-2.272,4.793-4.114,10.709-4.114C109.898,199.096,114.691,200.938,114.691,203.21z"/>
			</g>
			<g>
				<path style="fill:#FAA73F;" d="M87.287,198.339v3.388h0.021c0.438,3.39,7.734,6.089,16.672,6.089
					c8.939,0,16.236-2.699,16.674-6.089h0.021v-3.388H87.287z"/>
				<path style="fill:#FEC450;" d="M120.676,198.139c0,3.54-7.475,6.411-16.695,6.411c-9.219,0-16.693-2.872-16.693-6.411
					c0-3.542,7.475-6.413,16.693-6.413C113.201,191.726,120.676,194.597,120.676,198.139z"/>
				<path style="fill:#FAA73F;" d="M114.691,198.139c0,2.272-4.793,4.113-10.711,4.113c-5.916,0-10.709-1.841-10.709-4.113
					c0-2.273,4.793-4.114,10.709-4.114C109.898,194.024,114.691,195.866,114.691,198.139z"/>
			</g>
		</g>
	</g>
	<g>
		<path style="fill:#1FC4F4;" d="M175.084,155.587c0,14.745-11.951,26.698-26.697,26.698c-14.744,0-26.697-11.954-26.697-26.698
			c0-14.744,11.953-26.697,26.697-26.697C163.133,128.89,175.084,140.843,175.084,155.587z"/>
		<g>
			<g>
				<g>
					<path style="fill:#19599B;" d="M147.924,149.412c0,0,3.965-12.547,8.918-11.906c2.254,0.292,6.061,2.582,4.955,7.633
						c-0.563,2.579-3.674,4.512-12.055,6.432L147.924,149.412z"/>
					<path style="fill:#124881;" d="M149.111,148.976c0,0,3.855-11.363,7.695-9.433c1,0.506,1.031,2.46-1.91,5.798
						C151.15,149.592,149.111,148.976,149.111,148.976z"/>
				</g>
				<g>
					<path style="fill:#19599B;" d="M148.615,149.466c0,0-3.83-12.588-8.789-11.998c-2.258,0.268-6.088,2.517-5.039,7.579
						c0.535,2.585,3.629,4.55,11.988,6.558L148.615,149.466z"/>
					<path style="fill:#124881;" d="M147.436,149.019c0,0-3.738-11.403-7.598-9.513c-1.006,0.493-1.059,2.448,1.85,5.815
						C145.391,149.612,147.436,149.019,147.436,149.019z"/>
				</g>
			</g>
			<rect x="130.867" y="153.48" style="fill:#1D9AD6;" width="35.039" height="15.736"/>
			<rect x="129.867" y="149.678" style="fill:#1B62A9;" width="37.041" height="5.033"/>
		</g>
	</g>
	<g>
		<path style="fill:#1FC4F4;" d="M362.289,206.607c0,14.744-11.953,26.698-26.697,26.698c-14.746,0-26.699-11.954-26.699-26.698
			c0-14.744,11.953-26.698,26.699-26.698C350.336,179.909,362.289,191.862,362.289,206.607z"/>
		<g>
			<path style="fill:#F0516F;" d="M346.086,200.178l-6.064-4.227h-8.738l-6.188,4.253v25.14h20.99V200.178z M335.631,201.01
				c-0.865,0-1.563-0.699-1.563-1.561c0-0.863,0.697-1.562,1.563-1.562c0.861,0,1.561,0.699,1.561,1.562
				C337.191,200.311,336.492,201.01,335.631,201.01z"/>
			<g>
				<g>
					<path style="fill:#FFFFFF;" d="M328.685,210.846c0-0.626,0.066-1.17,0.199-1.633c0.135-0.463,0.322-0.849,0.564-1.156
						c0.24-0.307,0.529-0.536,0.865-0.687c0.336-0.151,0.705-0.226,1.109-0.226c0.402,0,0.772,0.075,1.107,0.226
						c0.336,0.15,0.625,0.379,0.865,0.687c0.242,0.307,0.43,0.692,0.564,1.156c0.133,0.463,0.199,1.008,0.199,1.633
						c0,0.62-0.066,1.161-0.199,1.624c-0.135,0.463-0.322,0.849-0.564,1.156c-0.24,0.307-0.529,0.538-0.865,0.691
						c-0.336,0.153-0.705,0.23-1.107,0.23c-0.404,0-0.773-0.077-1.109-0.23c-0.336-0.153-0.625-0.384-0.865-0.691
						c-0.242-0.307-0.43-0.692-0.564-1.156C328.752,212.007,328.685,211.465,328.685,210.846z M332.301,210.846
						c0-0.318-0.014-0.611-0.043-0.879c-0.027-0.267-0.076-0.497-0.145-0.69c-0.068-0.193-0.158-0.346-0.268-0.457
						c-0.111-0.111-0.252-0.166-0.422-0.166c-0.172,0-0.313,0.056-0.424,0.166c-0.109,0.111-0.199,0.263-0.268,0.457
						c-0.068,0.193-0.117,0.423-0.145,0.69c-0.029,0.268-0.043,0.561-0.043,0.879c0,0.313,0.014,0.604,0.043,0.874
						c0.027,0.27,0.076,0.502,0.145,0.695c0.068,0.193,0.158,0.345,0.268,0.456c0.111,0.111,0.252,0.167,0.424,0.167
						c0.17,0,0.311-0.056,0.422-0.167c0.109-0.111,0.199-0.263,0.268-0.456c0.068-0.193,0.117-0.425,0.145-0.695
						C332.287,211.45,332.301,211.158,332.301,210.846z M340.234,207.912l-8.326,11.156l-1.107-0.852l8.324-11.156L340.234,207.912z
						 M336.891,215.195c0-0.626,0.066-1.17,0.199-1.633c0.135-0.463,0.322-0.849,0.564-1.156c0.24-0.307,0.529-0.536,0.865-0.687
						c0.336-0.15,0.705-0.226,1.107-0.226c0.404,0,0.773,0.076,1.109,0.226c0.336,0.151,0.625,0.379,0.865,0.687
						c0.242,0.307,0.43,0.692,0.564,1.156c0.133,0.463,0.199,1.008,0.199,1.633c0,0.62-0.066,1.162-0.199,1.625
						c-0.135,0.463-0.322,0.849-0.564,1.156c-0.24,0.307-0.529,0.537-0.865,0.69c-0.336,0.154-0.705,0.23-1.109,0.23
						c-0.402,0-0.771-0.077-1.107-0.23c-0.336-0.153-0.625-0.384-0.865-0.69c-0.242-0.307-0.43-0.692-0.564-1.156
						C336.957,216.357,336.891,215.815,336.891,215.195z M340.506,215.195c0-0.318-0.014-0.611-0.043-0.878
						c-0.027-0.267-0.076-0.497-0.145-0.691c-0.068-0.193-0.158-0.345-0.267-0.456c-0.111-0.111-0.252-0.167-0.424-0.167
						c-0.17,0-0.31,0.055-0.422,0.167c-0.109,0.111-0.199,0.263-0.268,0.456c-0.068,0.193-0.117,0.424-0.145,0.691
						c-0.029,0.267-0.043,0.56-0.043,0.878c0,0.313,0.014,0.605,0.043,0.874c0.027,0.27,0.076,0.502,0.145,0.695
						c0.068,0.193,0.158,0.346,0.268,0.457c0.111,0.111,0.252,0.166,0.422,0.166c0.172,0,0.313-0.055,0.424-0.166
						c0.109-0.111,0.199-0.263,0.267-0.457c0.068-0.193,0.117-0.425,0.145-0.695C340.492,215.8,340.506,215.508,340.506,215.195z"/>
				</g>
			</g>
			<g>
				<path style="fill:#FEC450;" d="M335.59,201.015c-0.365,0-0.66-0.17-0.66-0.17v-13.762c0-0.365,0.295-0.66,0.66-0.66
					c0.365,0,0.66,0.295,0.66,0.66v13.799C336.06,200.979,335.955,201.015,335.59,201.015z"/>
			</g>
		</g>
	</g>
</g>
</svg>
